<svg width="2728" height="1085" version="1.1" viewBox="0 0 2728 1085" xmlns="http://www.w3.org/2000/svg" xmlns:xlink="http://www.w3.org/1999/xlink"><defs><linearGradient id="d"><stop stop-color="#1c170b" stop-opacity="0" offset="0"/><stop stop-color="#1c170b" offset="1"/></linearGradient><filter id="a" x="-.5" y="-.5" width="2" height="2" color-interpolation-filters="sRGB"><feFlood flood-color="rgb(0,0,0)" result="flood"/><feComposite in="SourceGraphic" in2="flood" operator="in" result="composite1"/><feGaussianBlur in="composite1" result="blur" stdDeviation="13.6433"/><feOffset dx="0" dy="0" result="offset"/><feComposite in="offset" in2="offset" operator="atop" result="composite2"/></filter><radialGradient id="b" cx="1782" cy="782.2" r="1331" gradientTransform="matrix(.5365 -.005494 .001014 .09907 824.9 535.7)" gradientUnits="userSpaceOnUse" xlink:href="#d"/><radialGradient id="c" cx="-1934" cy="1299" r="1331" gradientTransform="matrix(.1673 -.03589 .04296 .2002 337.1 355.2)" gradientUnits="userSpaceOnUse"><stop stop-color="#1c170b" stop-opacity="0" offset="0"/><stop stop-color="#1c170b" offset="1"/></radialGradient><clipPath id="e"><path d="m1640 996.9c-24.97-25.88 47.12-55.3 61.33-81.92 43.45-42.72-49.03-7.88-71.72-18.41-38.33-6.402-78.84-6.078-116.4-11.14-70.68-8.215-145.3-15.76-215.8-32.97-75.99-9.638-149.2-32.96-224.8-45.38-80.18-17.3-160.6-33.99-242.9-38.81-57.27-9.109-116.3-2.431-172.8-16.29-97.14-8.632-196.3-8.14-290.7-35.82-33.95 24.81-57.43 69.39-95.04 94.11-46.16 31.98-98.42 58.88-153.9 69-33.78 4.412-112.9-2.18-107.9-35.85 62.55-5.59 105.1-65.67 116.7-123.4 1.208-41.71 49.33-69.25 62.02-93.36-46.84-19.19-60.23-88.64-120.9-79.09-27.48 6.577-87.75-0.4526-44.64-33.64 64.32-45.7 150.7-33.33 217.7-0.3359 41.23 12.75 77.69 52.88 112 67.2 70.05-42.07 148.8-65.97 229-78.1 72.66-16.16 146.8-22.25 220.9-25.91 83.07-13.82 168.1-17.64 249.5-39.52 62.78-14.54 126.7-22.74 188.9-40.09 45.59-7.677 102.7-10.06 110.2-67.3 28-68.53 4.462-143.5-15.15-211-12.41-39.22-53.5-75.28-49.79-115.1 51.22-0.8186 92.21 38.45 134.5 62.78 64.17 46.78 115.2 108.9 164.6 170.3 24.56 43.24 66.9 77.25 118 80.11 84.32 0.2387 169.3-6.028 252.7 9.768 83 10 163.7 32.72 242 61.48 105.8 40.56 213.5 82.74 302.7 154.5 74.61 53.52 131 130.9 214.1 172.7 55.5 54.91-52.57 67.33-90.98 76.78-101.6 17.58-202.7 41.79-305.9 45.42-26.87 4.829-54.52 2.917-83.72 10.29-61.22 2.702-120.8 16.78-181.9 22.12-51.88 11.31-113.8 2.738-155.7 39.02-73.89 48.98-158.5 91.4-249.2 89.32l-7.121-1.432z" fill="#f6edd6" stroke="#000" stroke-width="4"/></clipPath></defs><g transform="translate(498.8 -920.8)"><path transform="rotate(-10 841.2 1403)" d="m1112 1899c-24.97-25.88 47.12-55.3 61.33-81.92 43.45-42.72-49.03-7.88-71.72-18.41-38.33-6.402-78.84-6.078-116.4-11.14-70.68-8.215-145.3-15.76-215.8-32.97-75.99-9.638-149.2-32.96-224.8-45.38-80.18-17.3-160.6-33.99-242.9-38.81-57.27-9.109-116.3-2.431-172.8-16.29-97.14-8.632-196.3-8.14-290.7-35.82-33.95 24.81-57.43 69.39-95.04 94.11-46.16 31.98-98.42 58.88-153.9 69-33.78 4.412-112.9-2.18-107.9-35.85 62.55-5.59 105.1-65.67 116.7-123.4 1.208-41.71 49.33-69.25 62.02-93.36-46.84-19.19-60.23-88.64-120.9-79.09-27.48 6.577-87.75-0.4526-44.64-33.64 64.32-45.7 150.7-33.33 217.7-0.3359 41.23 12.75 77.69 52.88 112 67.2 70.05-42.07 148.8-65.97 229-78.1 72.66-16.16 146.8-22.25 220.9-25.91 83.07-13.82 168.1-17.64 249.5-39.52 62.78-14.54 126.7-22.74 188.9-40.09 45.59-7.677 102.7-10.06 110.2-67.3 28-68.53 4.462-143.5-15.15-211-12.41-39.22-53.5-75.28-49.79-115.1 51.22-0.8186 92.21 38.45 134.5 62.78 64.17 46.78 115.2 108.9 164.6 170.3 24.56 43.24 66.9 77.25 118 80.11 84.32 0.2387 169.3-6.028 252.7 9.768 83 10 163.7 32.72 242 61.48 105.8 40.56 213.5 82.74 302.7 154.5 74.61 53.52 131 130.9 214.1 172.7 55.5 54.91-52.57 67.33-90.98 76.78-101.6 17.58-202.7 41.79-305.9 45.42-26.87 4.829-54.52 2.917-83.72 10.29-61.22 2.702-120.8 16.78-181.9 22.12-51.88 11.31-113.8 2.738-155.7 39.02-73.89 48.98-158.5 91.4-249.2 89.32l-7.121-1.432z" fill="#f6edd6" stroke="#000" stroke-width="4"/><path d="m1194 1844c-29.09-21.16 36.8-62.64 46.17-91.33 35.37-49.61-49.66 0.7544-73.83-5.671-38.86 0.352-78.7 7.705-116.6 9.244-71.03 4.183-145.9 9.716-218.3 5.006-76.51 3.704-152.7-6.542-229.2-5.658-81.97-3.116-164.1-5.589-246 3.964-57.98 0.9733-114.9 17.8-173 13.96-97.16 8.368-194.8 26.07-292.5 15.2-29.13 30.33-44.5 78.31-77.26 109.2-39.91 39.51-86.7 75.08-139.6 94.68-32.5 10.21-111.6 17.46-112.5-16.57 60.63-16.37 92.1-82.93 93.54-141.8-6.054-41.29 36.56-76.76 44.86-102.7-49.46-10.77-74.71-76.83-132.8-56.9-25.92 11.25-86.5 14.79-49.8-25.38 55.4-56.18 142.6-58.99 214.3-38.13 42.82 5.396 85.69 38.59 122 46.73 61.68-53.59 135-90.8 212-116.7 68.75-28.53 140.7-47.41 213.1-63.88 79.41-28.04 162.5-46.56 238.8-82.24 59.31-25.22 120.9-44.41 179.1-72.28 43.57-15.48 99.41-27.74 96.87-85.42 15.68-72.35-20.53-142.1-51.56-205.2-19.03-36.47-65.76-64.85-69.03-104.7 50.3-9.701 97.48 21.86 143.4 38.47 71.32 34.92 132.4 87.28 191.7 139.1 31.7 38.32 79.3 64.46 130.1 58.4 83.08-14.41 165.7-35.33 250.5-34.25 83.48-4.562 166.9 3.794 249 18.52 111.3 21.57 224.6 44.41 324.9 99.57 82.77 39.75 151.8 106.1 240.8 132.9 64.19 44.44-40.08 75.43-76.27 91.42-96.97 34.95-192.4 76.35-293.4 97.85-25.62 9.421-53.19 12.34-80.66 24.67-59.82 13.29-116.1 37.51-175.3 53.36-49.13 20.14-111.6 22.45-146.6 65.47-64.26 61.07-140.2 117.5-229.9 131.2l-7.261-0.1739z" fill="#f6edd6" stroke="#1f1a0e" stroke-width="10"/><g transform="rotate(-10 6259 3964)" clip-path="url(#e)" stroke-width="1.333"><path d="m1644 997.4c-32.12-18.78 34.76-51.74 48.8-71.19 29.75-31.46 54.49-66.46 68.49-106.6 12.49-31.43 39.4-54.96 58.66-76.72 45.42-34.1-23.11-18.38-44.71-19.69-88.48 12.21-178.4 2.847-267.4 9.399-45.6-9.364-91.08 0.5203-137.9-3.769-167.5-0.8386-335.2-2.795-503.1-9.019-93.85-4.681-184.1 31.03-276.6 26.83-80.55-4.889-183.8-18.11-224.7-30.51-29.7 14.64-51.51 61.64-88.24 86.49 15.32-26.07 58.39-58.01 76.71-91.21 15.48-14.1 32.2-68.7 1.817-29.66-19.82 23.83-35.94 49.17-55.82 72.26-14.5 21.68-38.97 30.04-54 50.98-29.02 16.37-53.61 42.17-87.18 52.5-26.33 9.835-46.27 14.54-63.57 18.76-16.35-0.8392-40.55-3.071-61.52-7.628-27.09-11.38-23.63-17.48-25.03-25.22 23.59 0.1988 36.53-8.763 48.99-15.38 48.57-33.68 62.75-74.16 71.02-117.9 3.823-36.5 57.7-67.1 58.74-83.45-52.16-29.64-63.95-92.24-120.9-79.09-38.76 3.299-87.19-2.328-35.01-40.53 51.6-24 97.38-25.74 154.7-10.3 34.45 10.49 60.33 18.2 96.91 44.47 21.28 16.01 50.36 35.38 67.88 43.99 10.61-8.272 20.82-14.73 41.3-24.27 85.33-39.72 156.2-56.61 270.2-71.84 71.51-9.039 174.7-15.73 225.5-22.89 57.41-8.164 107.5-14.08 163.6-28.26 41.44-7.207 56.21-11.68 94.2-17.08 57.8-11.3 177.5-31.17 192.1-52.39 15.59-26.7 29.3-68.74 27.61-113.9-1.095-29.4-9.292-57.47-18.54-99.07-10.79-70.41-63.5-103.1-61.71-151.7 55.54 3.325 67.18 25.5 99.5 41.68 25.51 18.7 76.9 57.51 72.25 56.97-6.491 8.772 27.5 61.73 41.06 35.62 27.67 33.05 58.49 63.26 81.04 99.81 30.18 40.24 67.46 79.76 122.1 81.64 65.41 4.192 129.8-4.515 194.1 4.097 46.18 3.044 85.96 9.856 134.6 18.62 100.4 24.18 192.1 58.9 285.3 95.96 79.25 33.63 154.4 78.45 219.8 135.2 59.85 48.46 109.1 110.5 179.4 145.3 42.75 20.74-0.096 59.84-32.02 60.12-68.47 16.12-138.4 28.93-207.8 42.37-38.54-13.49 65.21-22 29.72-56.42-11.11-36.08-108.6 3.261-89.07-31.46 38.98-0.7719 79.23-46.29 69.41-82.12-11.23-37.34-40.5-58.39-70.62-83.08-46.97-31.31-92.88-67.81-146.5-86.65-32.64-28.04-79.82-29.8-119.3-44.5-41.99-11.37-78.59-24.36-124.6-23.33-53.91-8.052-108.9-10.54-163.4-9.011-48.83-3.893-99.36 2.36-148.8 5.42-92.47 9.993-184.2 24.48-276.6 33.95-41.05 9.925-86.71 11.87-129.4 18.82-45.33 5.896-91.09 9.245-136.1 17.24-105 12.24-209.5 29.58-315.2 36.04-62.59 7.817-125.3 12-188.1 14.3-55.75 7.841-113.2 12.2-167.6 26.54-36.51 7.514-72.76 22.71-104.4 41.08 46.2 0.5873 93.48-12.1 140.7-9.228 151.4-5.519 296.7 46.23 447.3 49.39 91.03 8.667 184.3 6.32 271.9-21.63 68.53-18.74 134.9-44.4 197.8-77.07 58.27-27.03 115.7-55.9 178.1-72.64 57-19.62 117.5-25.19 177.1-28.67 90.28-1.798 180.9 16.61 265 47.5 41.54 12.12 88.44 31.86 127.5 56.6 41.14 19.43 77.72 50.99 121.2 63.89 20.36-10.18 74.02-14.21 61.65 19.98-30.21-15.5-0.5568 0.4855 3.051 15.02-38.44 27.06-63.24-36.01-99.4 2.739-46.5 13.21-91 30.36-131.9 57.04-37.55 28.7-89.85 39.15-114.9 81.69-31.13 15.08 23.62-50.57 5.241-54.75-23.41 18.82-32.74 72.55-67.6 93.06-20.54 20.43-40.31 40.06-63.33 57.33-29.71 19.65-56.37 44.05-89.84 58.34-24.29 12.75-46.23 26.76-72.12 36.33-31.48 12.84-62.47 25.91-107.5 24.58zm711.4-373.3c-4.78-16.76-3.587 15.23 0 0z" fill="#4d4839"/><g fill="url(#b)"><path d="m2359 627.6c-23.53-30.79 32.53 7.126 0 0z"/><path d="m2193 651.5c-5.403-19.73-3.902-32.55-17.88-15.84-20.31-25.8-49.13-42.79-83.82-49.24-17.16-6.028-24.03 3.862-53.48-11.46-37.92-8.832-84.65-24.29-129.5-29.14-45.32-1.483-89.23-6.673-133.5-5.44-30.9 8.182-64.77 9.627-101 11.57-49.33 10.69-97.48 9.732-144.5 23.34-45.1 5.689-75.68 15.62-112.7 29.45-32.2-0.137-75.35 5.386-100.1 10.2 38.59 17.04-74.74 24.39-24.97-3.523 39.43 21.71-9.881-29.5 31.75-18.63 44.75-21.06 92.27-38.46 135.8-63.5 56.82-25.63 113.5-52.33 173.9-68.5 66.26-20.65 136.6-25.44 206.2-27.24 45.2 3.417 90.98 9.716 136.6 19.86 54.64 13.61 107.7 32.99 159.9 53.02 61.5 27.68 116.7 68.86 178.4 95.36-18.43 43.02-77.01 32.43-113.6 50.03l-3.236 1.362-4.417-1.68z" filter="url(#a)"/><path d="m1936 698c-41.44-25.83 107.3-59.77 61.26-7.378-18.93 6.296-42.54 4.56-61.26 7.378z"/><path d="m1033 708c-39.18-5.996-73.89-9.39-109.7-5.8-20.58 3.312-83.42-6.363-27.44-12.57 21.43 10.13 42.79-19.4 66.4 1.656 33.26 5.737 79.52-14.15 98.08 14.04-7.663 5.561-18.59 3.957-27.33 2.668z" filter="url(#a)"/><path d="m1419 718c-61.08-9.712-124.8 0.2159-186.4-9.349-43.36-1.045-85.61 6.357-128.2-0.95-14.85-0.4887-23.91-12.26-38.68-0.6197 22.9-21.23 38.91-19.5 57.47-14.98 24.41 4.473 54.17-3.267 65.44-14.77 11.83 24.1 49.63 6.158 56.87 17.34 4.073-28.79 34.22 33.24 50.02 0.1696-17.53-18.2 31.75-16.78 27.13 2.156 19.34-9.981 41.38-17.47 65-7.279 5.09-1.366 48.04-16.32 67.64-13.03 17.54-2.138 21.58 12.3 41.67-0.2341 22.71-1.978 47.73 11.95 69.42-4.727 35.96-1.522 72.48 1.636 105-13.15 44.79-6.833 81.53 4.626 122.2-4.052 38.09 2.442 91.49-11.24 124.1 13.47-12.08 32.93-57.57 50.38-90.32 39.28-59.82 4.902-119.8 9.693-179.9 11.29-66.44 1.973-132.6-2.881-199-2.416-9.74 1.56-19.84 9.217-29.49 1.847z" filter="url(#a)"/><path d="m596.4 741.8c-44.41-9.059-88.88-7.143-133.1-17.18-26.67-8.723-94.4-4.231-93.85-36.46 37.05-32.66 86.15-0.8329 129.7-6.583 49.35 0.0107 99.26 15.13 147.7-1.021 40.58 24.86 80.8-10.63 122.4 7.395 22.8-16.86 44.53-0.9053 73.71 3.204-19.16 27.73-80.56 24.6-116.3 38.95-42.39 12.56-87.05 13.12-130.2 11.7z" filter="url(#a)"/><path d="m2505 795.6c-0.3702-41.8 78.12-38.28 114-44.39 21.82 3.328 82.32-20.29 82.32 5.798-43.38 22.34-90.21 24.9-137.5 31.58-19.5 1.747-39.21 9.807-58.79 7.016z" filter="url(#a)"/></g><path d="m364.2 661.4c-22.3 20.99-35.02 46.53-53.67 69.24-21.5 29.63-54.58 56.7-85.57 79.03-26.35 18.88-46.68 30.81-75.57 43.64-24.25 6.277-49.37 20.13-74.76 10.59-62.24-9.491 11.74-34.58 29.51-52.87 34.59 12.64 32.63-39.05 69.41-37.18 10.94-26.66 56.17-44.85 70.78-74.79 18.69-21.73 45.33-55.43-2.936-40.97-25.83 3.845-50.98 19.01-69.83 23.91-45.77-25.57 68.94-60.14 7.74-92.57-12.21-24.93 27.85-25.75-6.564-42.57-19.22-15.8-66.54-29.16-63.22-53.71 41.61-5.124 84.18 12.03 121 30.83 28.59 15.07 60.41 32.77 82.09 52.6z" fill="url(#c)" filter="url(#a)"/><path d="m312.6 576.6c42.02 23.06 76.32-27.34 116-35.96 53.17-21.9 111.1-30.96 166.6-40.64 52.79-15.52 108.2-15.93 162.8-18.59 50.78-1.896 99.37-14.2 150-19.41 42.68-3.927 84-9.041 126.1-16.14 40.37-8.014 78.37-18.65 119.8-22.55 51.66-5.819 101.6-18.46 151.6-32.25 29.42 2.61 58.94-5.633 44.12-31.97 14.93-14.97 41.42-79.04 60.81-50.67 24.2-21.8 41.98-53.31 6.114-78.47-12.37-31.23-28.03-60.93-54.31-82.28-22.62-39.4-45.36-79.32-66.85-119.3-6.886-36 54.58 16.53 70.81 22.71 41.95 27.56 79.37 56.81 108.5 97.96 30.97 39.22 69.8 69.79 99.5 109.6 14.62 24.56 105 68.69 35.17 75.24-24.41-2.17-66.79 18.78-14.84 13.2 49.92-3.977 99.06-13.89 149.2-14.7 78.38-5.621 158-7.529 235.3 8.244 59.21 10.27 120.2 15.42 177.5 34.17 42.34 17.41 87.59 28.15 126.4 53.18 39.78 26.06 94.51 31.49 128.3 61.29 66.05 42.31 128.1 90.61 184.9 144.8 36.73 30.83 79.76 56.44 116.8 85.65-39.38 7.783-85.15-19.44-127.7-10.52-39.08-1.775-102.1 40.52-147.9 26.85 51.92-35.65 146.8-33.83 89.61-93.64-39.89-28.55-74.12-64.3-114.5-92.26-47.89-37.09-103.6-63.62-159.8-85.3-43-18.13-87.7-33.15-133.2-47.06-51.84-8.402-102.7-22.06-155.8-23.46-51.17-4.888-101.7-0.795-152.6 2.591-49.17-0.1914-96.29 1.914-145.6 8.431-70.62 15.99-143.8 21-215.6 31.92-52.36 2.52-103.4 18.95-155.7 17.58-57.12 11.5-115.6 16.16-173.3 25.96-46.62 2.269-91.36 11.89-137.7 17.24-46.22 6.015-93.6 2.461-140.7 8.04-48.75 5.304-98.34 11.51-147 13.89-52.09 6.845-106.4 14.42-159.3 21.47-50.37 10.41-102 22.93-145.3 51.68 50.38 0.9464 100.6-13.91 151.7-9.064 74.9 0.0373 150.2 9.144 223 24.67 44.38 17.64 92.79 20.02 138.3 29.91 17.52-2.333 105.6 21.55 62.13 19.71-20.61 23.56-47.68-0.1372-69.9 6.951-37.23-6.367-36.12 9.342-70.04-5.945-25.86 8.853-50.04-2.643-80.68-4.119-16.43 12.96-13.9-28.22-34.38-8.756-39.09-7.672-75.65-18.71-115.3-16.15-44.86-1.911-85.82 12.06-130.3 5.519-37.56-5.423-76.92-10.1-101 25.56" fill="url(#b)" filter="url(#a)"/><path d="m1672 985.9c-45.15-16.04 36.84-58.35 50.99-75.2 21.93-32.35 37.76-63.24 80.29-62.41-24.03-18.73 27.52-52.72-16.96-46.96-15.54-5.58 34.84-27.34 34.48 2.657 16.93-9.915-31.49-64.2 9.792-53.65 28.15 0.1778 63.61-13.51 62.01 32.71 1.288 31.51 27.01 2.248 7.116-11.93 15.11-38.14 14.87 21.48 42.97 0.8302 8.772-0.2091 2.836-31.66 24.21-15.51 22.94-17.59 60.65-18.83 40.3 22.48-25.68 32.92-57.33 59.04-88.76 85.74-30.89 23.2-62.1 49.61-97.95 67-21.34 10.49-40.95 24.08-64.18 31.34-26.64 10.48-56.27 17.17-84.31 22.9z" fill="url(#b)" filter="url(#a)"/></g></g></svg>
